<?xml version="1.0" encoding="UTF-8" standalone="no"?>
<!-- Created with Inkscape (http://www.inkscape.org/) -->

<svg
   xmlns:dc="http://purl.org/dc/elements/1.1/"
   xmlns:cc="http://creativecommons.org/ns#"
   xmlns:rdf="http://www.w3.org/1999/02/22-rdf-syntax-ns#"
   xmlns:svg="http://www.w3.org/2000/svg"
   xmlns="http://www.w3.org/2000/svg"
   xmlns:sodipodi="http://sodipodi.sourceforge.net/DTD/sodipodi-0.dtd"
   xmlns:inkscape="http://www.inkscape.org/namespaces/inkscape"
   width="525.27289mm"
   height="436.11966mm"
   viewBox="0 0 525.27289 436.11966"
   version="1.1"
   id="svg8"
   sodipodi:docname="maquinaMorse.svg"
   inkscape:version="0.92.4 (unknown)">
  <defs
     id="defs2" />
  <sodipodi:namedview
     id="base"
     pagecolor="#ffffff"
     bordercolor="#666666"
     borderopacity="1.0"
     inkscape:pageopacity="0"
     inkscape:pageshadow="2"
     inkscape:zoom="0.33587573"
     inkscape:cx="872.16711"
     inkscape:cy="300.50562"
     inkscape:document-units="mm"
     inkscape:current-layer="layer1"
     showgrid="true"
     inkscape:window-width="1360"
     inkscape:window-height="711"
     inkscape:window-x="0"
     inkscape:window-y="33"
     inkscape:window-maximized="1"
     inkscape:snap-center="true"
     inkscape:snap-bbox="true"
     inkscape:bbox-paths="true"
     inkscape:bbox-nodes="true"
     inkscape:snap-bbox-edge-midpoints="true"
     inkscape:snap-bbox-midpoints="true"
     inkscape:snap-grids="true"
     inkscape:object-paths="true"
     inkscape:snap-intersection-paths="true"
     inkscape:snap-to-guides="false"
     inkscape:snap-object-midpoints="true"
     fit-margin-top="0"
     fit-margin-left="0"
     fit-margin-right="0"
     fit-margin-bottom="0"
     showborder="false"
     showguides="true"
     inkscape:guide-bbox="true"
     inkscape:pagecheckerboard="false"
     inkscape:snap-smooth-nodes="true"
     inkscape:snap-midpoints="true"
     inkscape:snap-global="true"
     inkscape:snap-nodes="true"
     inkscape:object-nodes="true">
    <inkscape:grid
       type="xygrid"
       id="grid815"
       spacingx="3"
       spacingy="3"
       empspacing="10"
       originx="207.13645"
       originy="234.98738" />
    <sodipodi:guide
       position="366.13646,306.98738"
       orientation="1,0"
       id="guide837"
       inkscape:locked="false" />
    <sodipodi:guide
       position="156.95683,300.48763"
       orientation="1,0"
       id="guide852"
       inkscape:locked="false" />
    <sodipodi:guide
       position="264.13646,429.98737"
       orientation="1,0"
       id="guide959"
       inkscape:locked="false" />
    <sodipodi:guide
       position="210.13645,305.46209"
       orientation="0,1"
       id="guide881"
       inkscape:locked="false" />
    <sodipodi:guide
       position="185.95703,311.46224"
       orientation="1,0"
       id="guide883"
       inkscape:locked="false" />
    <sodipodi:guide
       position="181.98269,274.67422"
       orientation="0,1"
       id="guide888"
       inkscape:locked="false" />
    <sodipodi:guide
       position="173.95703,301.75963"
       orientation="1,0"
       id="guide892"
       inkscape:locked="false" />
  </sodipodi:namedview>
  <metadata
     id="metadata5">
    <rdf:RDF>
      <cc:Work
         rdf:about="">
        <dc:format>image/svg+xml</dc:format>
        <dc:type
           rdf:resource="http://purl.org/dc/dcmitype/StillImage" />
        <dc:title />
      </cc:Work>
    </rdf:RDF>
  </metadata>
  <g
     inkscape:label="Layer 1"
     inkscape:groupmode="layer"
     id="layer1"
     transform="translate(207.13644,-95.867708)">
    <path
       style="fill:#ffff00;stroke:none;stroke-width:0.99999994px;stroke-linecap:butt;stroke-linejoin:miter;stroke-opacity:1"
       d="M 655.64844 0.484375 L 649.60547 25.8125 L 660.39453 28.373047 L 647.05469 83.476562 L 636.02344 80.855469 L 622.92773 136.01562 L 633.96094 138.63477 L 620.86523 193.79492 L 609.83398 191.17578 L 596.73828 246.33594 L 607.76953 248.95508 L 594.67383 304.11523 L 583.64258 301.49609 L 570.54883 356.65234 L 521.35352 384.82031 L 526.98633 394.66016 L 455.30469 435.70703 L 449.67188 425.86719 L 400.4707 454.04102 L 400.4668 465.38281 L 411.80664 465.38281 L 411.80664 522.07422 L 400.4668 522.07422 L 400.4668 578.76758 L 411.80664 578.76758 L 411.80664 635.46094 L 400.4668 635.46094 L 400.4668 692.1543 L 411.80664 692.1543 L 411.80664 748.8457 L 457.16016 748.8457 L 457.16016 760.18555 L 502.51367 760.18555 L 502.51367 748.8457 L 547.86914 748.8457 L 547.86914 760.18555 L 593.22266 760.18555 L 593.22266 748.8457 L 638.57812 748.8457 L 638.57812 760.18555 L 683.93164 760.18555 L 683.93164 748.8457 L 729.28516 748.8457 L 729.28516 692.1543 L 740.625 692.1543 L 740.625 635.46094 L 729.28516 635.46094 L 729.28516 578.76758 L 740.625 578.76758 L 740.625 522.07422 L 729.28516 522.07422 L 729.28516 465.38281 L 740.625 465.38281 L 740.625 408.68945 L 729.28516 408.68945 L 729.28516 351.99609 L 740.625 351.99609 L 740.625 295.30273 L 729.28516 295.30273 L 729.28516 238.60938 L 740.625 238.60938 L 740.625 181.91797 L 729.28516 181.91797 L 729.28516 125.22461 L 740.625 125.22461 L 740.625 68.53125 L 729.28516 68.53125 L 729.28516 11.837891 L 740.625 11.837891 L 740.625 0.5 L 714.8457 0.5 L 714.8457 11.837891 L 680.83008 11.837891 L 680.83008 0.5 L 655.64844 0.484375 z M 665.69727 471.14648 L 702.83008 471.14648 L 702.83008 516.50195 L 665.69727 516.50195 L 657.47461 507.81836 L 657.47461 479.69922 L 665.69727 471.14648 z M 593.46875 519.9375 C 600.7747 519.9374 606.69737 525.86007 606.69727 533.16602 C 606.69736 540.47197 600.7747 546.39463 593.46875 546.39453 C 586.1628 546.39463 580.24014 540.47197 580.24023 533.16602 C 580.24013 525.86007 586.1628 519.9374 593.46875 519.9375 z M 657.47461 591.28906 L 702.83008 591.28906 L 702.83008 629.08594 L 657.47461 629.08594 L 657.47461 591.28906 z M 593.46875 633.57031 C 600.7747 633.57021 606.69737 639.49288 606.69727 646.79883 C 606.69736 654.10478 600.7747 660.02744 593.46875 660.02734 C 586.1628 660.02744 580.24014 654.10478 580.24023 646.79883 C 580.24013 639.49288 586.1628 633.57021 593.46875 633.57031 z M 614.67383 669.47461 L 716.72266 669.47461 L 716.72266 737.50586 L 614.67383 737.50586 L 614.67383 669.47461 z "
       transform="matrix(0.26458333,0,0,0.26458333,-207.13644,95.867708)"
       id="path58439" />
    <path
       style="fill:#ff0000;stroke:none;stroke-width:0.99999994px;stroke-linecap:butt;stroke-linejoin:miter;stroke-opacity:1"
       d="M 839.57031 0.5 L 839.57031 11.837891 L 782.87695 11.837891 L 782.87695 68.53125 L 794.2168 68.53125 L 794.2168 125.22461 L 782.87695 125.22461 L 782.87695 181.91797 L 794.2168 181.91797 L 794.2168 238.60938 L 782.87695 238.60938 L 782.87695 295.30273 L 794.2168 295.30273 L 794.2168 351.99609 L 782.87695 351.99609 L 782.87695 408.68945 L 794.2168 408.68945 L 794.2168 465.38281 L 782.87695 465.38281 L 782.87695 522.07422 L 794.2168 522.07422 L 794.2168 578.76758 L 782.87695 578.76758 L 782.87695 635.46094 L 794.2168 635.46094 L 794.2168 692.1543 L 782.87695 692.1543 L 782.87695 748.8457 L 839.57031 748.8457 L 839.57031 760.18555 L 884.92578 760.18555 L 884.92578 748.8457 L 930.2793 748.8457 L 930.2793 760.18555 L 975.63281 760.18555 L 975.63281 748.8457 L 1020.9883 748.8457 L 1020.9883 760.18555 L 1066.3418 760.18555 L 1066.3418 748.8457 L 1111.6973 748.8457 L 1111.6973 760.18555 L 1157.0508 760.18555 L 1157.0508 748.8457 L 1213.7441 748.8457 L 1213.7441 692.1543 L 1202.4062 692.1543 L 1202.4062 635.46094 L 1213.7441 635.46094 L 1213.7441 578.76758 L 1202.4062 578.76758 L 1202.4062 522.07422 L 1213.7441 522.07422 L 1213.7441 465.38281 L 1202.4062 465.38281 L 1202.4062 408.68945 L 1213.7441 408.68945 L 1213.7441 351.99609 L 1202.4062 351.99609 L 1202.4062 295.30273 L 1213.7441 295.30273 L 1213.7441 238.60938 L 1202.4062 238.60938 L 1202.4062 181.91797 L 1213.7441 181.91797 L 1213.7441 125.22461 L 1202.4062 125.22461 L 1202.4062 68.53125 L 1213.7441 68.53125 L 1213.7441 11.837891 L 1157.0508 11.837891 L 1157.0508 0.5 L 1111.6973 0.5 L 1111.6973 11.837891 L 1066.3418 11.837891 L 1066.3418 0.5 L 1020.9883 0.5 L 1020.9883 11.837891 L 975.63281 11.837891 L 975.63281 0.5 L 930.2793 0.5 L 930.2793 11.837891 L 884.92578 11.837891 L 884.92578 0.5 L 839.57031 0.5 z M 875.83008 441.39844 A 6.6141729 6.6141729 0 0 1 882.44336 448.01172 A 6.6141729 6.6141729 0 0 1 875.83008 454.62695 A 6.6141729 6.6141729 0 0 1 869.21484 448.01172 A 6.6141729 6.6141729 0 0 1 875.83008 441.39844 z M 1067.7598 499.02344 A 6.614173 6.614173 0 0 1 1074.375 505.63867 A 6.614173 6.614173 0 0 1 1067.7598 512.25195 A 6.614173 6.614173 0 0 1 1061.1465 505.63867 A 6.614173 6.614173 0 0 1 1067.7598 499.02344 z M 1067.7598 604.67383 A 6.6141731 6.6141731 0 0 1 1074.373 611.28711 A 6.6141731 6.6141731 0 0 1 1067.7598 617.90234 A 6.6141731 6.6141731 0 0 1 1061.1465 611.28711 A 6.6141731 6.6141731 0 0 1 1067.7598 604.67383 z M 871.03125 623.99219 A 6.6141732 6.6141732 0 0 1 877.64648 630.60742 A 6.6141732 6.6141732 0 0 1 871.03125 637.2207 A 6.6141732 6.6141732 0 0 1 864.41797 630.60742 A 6.6141732 6.6141732 0 0 1 871.03125 623.99219 z "
       id="path854"
       transform="matrix(0.26458333,0,0,0.26458333,-207.13644,95.867708)" />
    <path
       style="fill:#ff0000;stroke:none;stroke-width:0.99999994px;stroke-linecap:butt;stroke-linejoin:miter;stroke-opacity:1"
       d="M 1236.4219 0.484375 L 1236.4219 0.49804688 L 1321.3984 0.484375 L 1236.4219 0.484375 z M 1321.3984 0.484375 L 1295.918 0.49804688 L 1295.918 11.837891 L 1261.9023 11.837891 L 1261.9023 0.49804688 L 1236.4219 0.49804688 L 1236.4219 11.835938 L 1247.7598 11.835938 L 1247.7598 68.529297 L 1236.4219 68.529297 L 1236.4219 125.22266 L 1247.7598 125.22266 L 1247.7598 181.91602 L 1236.4219 181.91602 L 1236.4219 238.60742 L 1247.7598 238.60742 L 1247.7598 295.30078 L 1236.4219 295.30078 L 1236.4219 351.99414 L 1247.7598 351.99414 L 1247.7598 408.6875 L 1236.4219 408.6875 L 1236.4219 465.37891 L 1247.7598 465.37891 L 1247.7598 522.07227 L 1236.4219 522.07227 L 1236.4219 578.76758 L 1247.7598 578.76758 L 1247.7598 635.46094 L 1236.4219 635.46094 L 1236.4219 692.1543 L 1247.7598 692.1543 L 1247.7598 748.8457 L 1293.1152 748.8457 L 1293.1152 760.18555 L 1338.4688 760.18555 L 1338.4688 748.8457 L 1383.8242 748.8457 L 1383.8242 760.18555 L 1429.1777 760.18555 L 1429.1777 748.8457 L 1474.5332 748.8457 L 1474.5332 760.18555 L 1519.8867 760.18555 L 1519.8867 748.8457 L 1565.2402 748.8457 L 1565.2402 692.1543 L 1576.5801 692.1543 L 1576.5801 635.46094 L 1565.2402 635.46094 L 1565.2402 578.76758 L 1576.5801 578.76758 L 1576.5801 522.07422 L 1565.2402 522.07422 L 1565.2402 465.38086 L 1576.5801 465.38086 L 1576.5801 454.04102 L 1527.3789 425.86719 L 1521.7441 435.70703 L 1450.0645 394.66016 L 1455.6973 384.82031 L 1406.502 356.65234 L 1393.4082 301.49609 L 1382.377 304.11523 L 1369.2812 248.95508 L 1380.3125 246.33594 L 1367.2168 191.17578 L 1356.1855 193.79492 L 1343.0898 138.63477 L 1354.123 136.01562 L 1341.0273 80.855469 L 1329.9941 83.476562 L 1316.6562 28.373047 L 1327.4453 25.8125 L 1321.3984 0.484375 z M 1315.791 337.82227 A 14.173228 14.173228 0 0 1 1329.9648 351.99609 A 14.173228 14.173228 0 0 1 1315.791 366.16992 A 14.173228 14.173228 0 0 1 1301.6172 351.99609 A 14.173228 14.173228 0 0 1 1315.791 337.82227 z M 1383.8223 411.71289 A 34.015748 34.015748 0 0 1 1417.8379 445.72852 A 34.015748 34.015748 0 0 1 1383.8223 479.74414 A 34.015748 34.015748 0 0 1 1349.8066 445.72852 A 34.015748 34.015748 0 0 1 1383.8223 411.71289 z M 1383.8223 520.18555 C 1391.1282 520.18546 1397.0509 526.10812 1397.0508 533.41406 C 1397.0509 540.72 1391.1282 546.64267 1383.8223 546.64258 C 1376.5164 546.64267 1370.5937 540.72 1370.5938 533.41406 C 1370.5937 526.10812 1376.5164 520.18546 1383.8223 520.18555 z M 1383.8223 633.57031 C 1391.1282 633.57022 1397.0509 639.49289 1397.0508 646.79883 C 1397.0509 654.10477 1391.1282 660.02743 1383.8223 660.02734 C 1376.5164 660.02743 1370.5937 654.10477 1370.5938 646.79883 C 1370.5937 639.49289 1376.5164 633.57022 1383.8223 633.57031 z "
       transform="matrix(0.26458333,0,0,0.26458333,-207.13644,95.867708)"
       id="path856" />
    <path
       sodipodi:nodetypes="cccccccccccccccccccccccccccccccccccccccccccccccccccccccccccccccc"
       inkscape:connector-curvature="0"
       id="path883"
       d="m 111,390 h 3 v -15 h -3 v -12 h 3 v -12 h -3 v -12 h 3 v -12 h -3 v -12 h 3 V 300 H 98.99999 v 3 h -9.00002 -2.99998 v -3 h -12 v 3 h -12 v -3 h -12 v 3 h -12 l 5e-6,-3 H 27 v 3 H 15 v -3 H 0 v 15 h 3 v 12 H 0 v 12 h 3 v 12 H 0 v 12 h 3 v 12 H 0 v 15 l 15,-10e-6 V 387 h 12 v 3 h 12 v -3 h 12 v 3 h 12 v -3 h 12 v 3 h 12 v -3 H 89.99998 99 v 3 h 12"
       style="fill:#00ff00;stroke:none;stroke-width:0.26458332px;stroke-linecap:butt;stroke-linejoin:miter;stroke-opacity:1" />
    <path
       style="fill:#0000ff;stroke:none;stroke-width:0.26458332px;stroke-linecap:butt;stroke-linejoin:miter;stroke-opacity:1"
       d="m 0,395.99999 h 15 v -3.06614 l 12,-0.0661 v 3 l 12,0.0661 V 393 h 12 v 3 h 12 v -3 h 12 v 3 h 12 v -3 H 89.99998 99 v 3 h 14.93385 l -0.0661,15 h -2.99998 v 15 h 2.99998 v 15 h -2.99998 v 15 h 2.99998 v 15 H 0 V 456 H 2.99998 V 441 H 0 V 426 H 2.99998 V 411 H 0 v -15"
       id="path912"
       inkscape:connector-curvature="0"
       sodipodi:nodetypes="cccccccccccccccccccccccccccccccccccccc" />
    <g
       id="g1022"
       transform="matrix(1,0,0,-1,-4.9799999e-6,1011.8551)">
      <path
         sodipodi:nodetypes="cccccccccccc"
         inkscape:connector-curvature="0"
         id="path934"
         d="m 3,531.8551 -1e-5,-15.00001 H -4.0000202e-8 v -21.8551 L 3,495 V 479.99999 H 111 V 495 l 3,-10e-6 v 21.8551 h -2.99999 L 111,531.8551"
         style="fill:#0000ff;stroke:none;stroke-width:0.26458332px;stroke-linecap:butt;stroke-linejoin:miter;stroke-opacity:1" />
      <path
         inkscape:connector-curvature="0"
         id="path936"
         d="M 3,531.85509 H 111"
         style="fill:none;stroke:none;stroke-width:0.26458332px;stroke-linecap:butt;stroke-linejoin:miter;stroke-opacity:1" />
      <g
         style="fill:#ffffff;stroke:none"
         id="g954">
        <path
           style="opacity:0.98999999;fill:#ffffff;fill-opacity:1;stroke:none;stroke-width:0.49999997;stroke-linecap:square;stroke-linejoin:miter;stroke-miterlimit:4;stroke-dasharray:none;stroke-opacity:1"
           d="m 21.5,487.25 h 71 v 27.5 h -71 z"
           id="rect898"
           inkscape:connector-curvature="0" />
        <g
           style="fill:#ffffff;stroke:none"
           id="g946">
          <path
             style="opacity:0.98999999;fill:#ffffff;fill-opacity:1;stroke:none;stroke-width:0.5;stroke-linecap:square;stroke-linejoin:miter;stroke-miterlimit:4;stroke-dasharray:none;stroke-opacity:1"
             d="M 20.5,485.5 A 1.5,1.5 0 0 1 19,487 1.5,1.5 0 0 1 17.5,485.5 1.5,1.5 0 0 1 19,484 a 1.5,1.5 0 0 1 1.5,1.5 z"
             id="path900"
             inkscape:connector-curvature="0" />
          <path
             style="opacity:0.98999999;fill:#ffffff;fill-opacity:1;stroke:none;stroke-width:0.5;stroke-linecap:square;stroke-linejoin:miter;stroke-miterlimit:4;stroke-dasharray:none;stroke-opacity:1"
             d="M 96.5,485.5 A 1.5,1.5 0 0 1 95,487 1.5,1.5 0 0 1 93.5,485.5 1.5,1.5 0 0 1 95,484 a 1.5,1.5 0 0 1 1.5,1.5 z"
             id="circle904"
             inkscape:connector-curvature="0" />
          <path
             style="opacity:0.98999999;fill:#ffffff;fill-opacity:1;stroke:none;stroke-width:0.5;stroke-linecap:square;stroke-linejoin:miter;stroke-miterlimit:4;stroke-dasharray:none;stroke-opacity:1"
             d="M 96.5,516.5 A 1.5,1.5 0 0 1 95,518 1.5,1.5 0 0 1 93.5,516.5 1.5,1.5 0 0 1 95,515 a 1.5,1.5 0 0 1 1.5,1.5 z"
             id="circle906"
             inkscape:connector-curvature="0" />
          <path
             style="opacity:0.98999999;fill:#ffffff;fill-opacity:1;stroke:none;stroke-width:0.5;stroke-linecap:square;stroke-linejoin:miter;stroke-miterlimit:4;stroke-dasharray:none;stroke-opacity:1"
             d="M 20.5,516.5 A 1.5,1.5 0 0 1 19,518 1.5,1.5 0 0 1 17.5,516.5 1.5,1.5 0 0 1 19,515 a 1.5,1.5 0 0 1 1.5,1.5 z"
             id="circle908"
             inkscape:connector-curvature="0" />
        </g>
      </g>
      <g
         style="stroke:none"
         id="g988">
        <path
           style="opacity:0.98999999;fill:#ffffff;fill-opacity:1;stroke:none;stroke-width:0.5;stroke-linecap:square;stroke-linejoin:miter;stroke-miterlimit:4;stroke-dasharray:none;stroke-opacity:1"
           d="M 41.5,525 A 2.5,2.5 0 0 1 39,527.5 2.5,2.5 0 0 1 36.5,525 2.5,2.5 0 0 1 39,522.5 2.5,2.5 0 0 1 41.5,525 Z"
           id="path917"
           inkscape:connector-curvature="0" />
        <path
           style="opacity:0.98999999;fill:#ffffff;fill-opacity:1;stroke:none;stroke-width:0.5;stroke-linecap:square;stroke-linejoin:miter;stroke-miterlimit:4;stroke-dasharray:none;stroke-opacity:1"
           d="M 77.5,525 A 2.5,2.5 0 0 1 75,527.5 2.5,2.5 0 0 1 72.5,525 2.5,2.5 0 0 1 75,522.5 2.5,2.5 0 0 1 77.5,525 Z"
           id="circle930"
           inkscape:connector-curvature="0" />
        <path
           style="opacity:0.98999999;fill:#ffffff;fill-opacity:1;stroke:none;stroke-width:0.5;stroke-linecap:square;stroke-linejoin:miter;stroke-miterlimit:4;stroke-dasharray:none;stroke-opacity:1"
           d="M 59.5,525 A 2.5,2.5 0 0 1 57,527.5 2.5,2.5 0 0 1 54.5,525 2.5,2.5 0 0 1 57,522.5 2.5,2.5 0 0 1 59.5,525 Z"
           id="circle938"
           inkscape:connector-curvature="0" />
      </g>
    </g>
    <path
       style="fill:#0000ff;stroke:none;stroke-width:0.26458332px;stroke-linecap:butt;stroke-linejoin:miter;stroke-opacity:1"
       d="m 110.99603,658.11235 0.004,-6.74157 h 3 v -9 h -3 L 111,635.62919 H 3.0000009 l -3e-5,6.74159 H -2.9099996e-5 v 9 H 2.9999709 l 2e-5,6.74157 H 14.999986 v -3.00001 h 11.999999 v 3.00001 h 12 v -3.00001 h 12 v 3.00001 h 12.00001 v -3.00001 h 11.99999 v 3.00001 h 12 v -3.00001 h 11.999991 v 3.00001 z"
       id="path981"
       inkscape:connector-curvature="0"
       sodipodi:nodetypes="ccccccccccccccccccccccccccccc" />
    <path
       style="opacity:1;fill:none;stroke:#0000ff;stroke-width:0.26458332px;stroke-linecap:butt;stroke-linejoin:miter;stroke-opacity:1"
       d="m 9.28391,211.7608 10e-4,8.40982 h -6.2849 v 12.7093 h 6.28644 l 0.003,20.22409 H 7.25339 v 9.02012 h 2.03709 l 5.3e-4,3.20756 h 66.17685 v -1.20872 l 2.46651,-2.46651 v -34.39893 l -2.36264,-2.36213 v -11.85923 l -1.27539,-1.27537 z"
       id="path75"
       inkscape:connector-curvature="0"
       sodipodi:nodetypes="cccccccccccccccccc" />
    <path
       style="opacity:1;fill:none;fill-opacity:1;stroke:#0000ff;stroke-width:0.1;stroke-linecap:square;stroke-linejoin:miter;stroke-miterlimit:4;stroke-dasharray:none;stroke-opacity:1"
       d="m 14.500017,143 h 85 v 55 h -85 z"
       id="rect957" />
    <g
       aria-label="Breadboard"
       style="font-style:normal;font-weight:normal;font-size:7.09325504px;line-height:1.25;font-family:sans-serif;letter-spacing:0px;word-spacing:0px;fill:none;fill-opacity:1;stroke:#0000ff;stroke-width:0.26458332"
       id="text963">
      <path
         d="m 37.699648,171.43007 v 1.89454 h 1.122175 q 0.564551,0 0.834704,-0.23205 0.273617,-0.23552 0.273617,-0.71695 0,-0.48489 -0.273617,-0.71348 -0.270153,-0.23206 -0.834704,-0.23206 z m 0,-2.12659 v 1.55858 h 1.035587 q 0.512599,0 0.761971,-0.19049 0.252836,-0.19396 0.252836,-0.5888 0,-0.39138 -0.252836,-0.58533 -0.249372,-0.19396 -0.761971,-0.19396 z m -0.699628,-0.57494 h 1.787168 q 0.800069,0 1.233007,0.3325 0.432938,0.33249 0.432938,0.94553 0,0.4745 -0.221664,0.75505 -0.221664,0.28054 -0.651139,0.34981 0.516062,0.11083 0.800069,0.46411 0.287471,0.34981 0.287471,0.87627 0,0.6927 -0.471036,1.07022 -0.471037,0.37752 -1.340376,0.37752 H 37.00002 Z"
         style="fill:none;stroke-width:0.26458332;stroke:#0000ff"
         id="path1014" />
      <path
         d="m 44.082884,170.61615 q -0.107368,-0.0623 -0.235518,-0.09 -0.124686,-0.0312 -0.27708,-0.0312 -0.540307,0 -0.831241,0.35327 -0.287471,0.34982 -0.287471,1.00788 v 2.04347 h -0.640748 v -3.87912 h 0.640748 v 0.60265 q 0.200884,-0.35328 0.522989,-0.52299 0.322106,-0.17318 0.782752,-0.17318 0.06581,0 0.145467,0.0104 0.07966,0.007 0.176639,0.0242 z"
         style="fill:none;stroke-width:0.26458332;stroke:#0000ff"
         id="path1016" />
      <path
         d="m 47.923909,171.80067 v 0.31171 h -2.930123 q 0.04156,0.65807 0.394839,1.00442 0.356741,0.34289 0.990562,0.34289 0.367131,0 0.710018,-0.09 0.346351,-0.0901 0.685774,-0.27016 v 0.60265 q -0.342887,0.14547 -0.703091,0.22167 -0.360205,0.0762 -0.7308,0.0762 -0.928219,0 -1.471989,-0.5403 -0.540306,-0.54031 -0.540306,-1.4616 0,-0.95247 0.512598,-1.51009 0.516062,-0.56109 1.388865,-0.56109 0.782752,0 1.236471,0.50567 0.457182,0.50221 0.457182,1.36809 z m -0.637284,-0.18703 q -0.0069,-0.52299 -0.294398,-0.83471 -0.284007,-0.31171 -0.755044,-0.31171 -0.533379,0 -0.855485,0.30132 -0.318642,0.30133 -0.367131,0.84856 z"
         style="fill:none;stroke-width:0.26458332;stroke:#0000ff"
         id="path1018" />
      <path
         d="m 50.732811,171.9496 q -0.772361,0 -1.070222,0.17664 -0.297862,0.17664 -0.297862,0.60265 0,0.33942 0.221664,0.5403 0.225128,0.19742 0.609577,0.19742 0.529916,0 0.848558,-0.37405 0.322106,-0.37753 0.322106,-1.00096 v -0.142 z m 1.271106,-0.26323 v 2.21318 h -0.637285 v -0.58879 q -0.218201,0.35327 -0.54377,0.52298 -0.325569,0.16625 -0.796606,0.16625 -0.595722,0 -0.949,-0.33249 -0.349813,-0.33596 -0.349813,-0.89705 0,-0.6546 0.436401,-0.9871 0.439865,-0.3325 1.309204,-0.3325 h 0.893584 v -0.0623 q 0,-0.43986 -0.290934,-0.67885 -0.287471,-0.24244 -0.81046,-0.24244 -0.332496,0 -0.647675,0.0797 -0.315179,0.0797 -0.606113,0.23898 v -0.58879 q 0.349814,-0.13508 0.678847,-0.20089 0.329032,-0.0693 0.640748,-0.0693 0.841631,0 1.257251,0.4364 0.415621,0.43641 0.415621,1.32306 z"
         style="fill:none;stroke-width:0.26458332;stroke:#0000ff"
         id="path1020" />
      <path
         d="m 55.87265,170.60922 v -2.09888 h 0.637285 v 5.38921 H 55.87265 v -0.58187 q -0.200883,0.34635 -0.509135,0.51606 -0.304788,0.16625 -0.734262,0.16625 -0.703091,0 -1.14642,-0.56108 -0.439865,-0.56109 -0.439865,-1.47546 0,-0.91436 0.439865,-1.47545 0.443329,-0.56109 1.14642,-0.56109 0.429474,0 0.734262,0.16971 0.308252,0.16625 0.509135,0.5126 z m -2.171616,1.35423 q 0,0.70309 0.287471,1.10486 0.290934,0.3983 0.796605,0.3983 0.505672,0 0.796606,-0.3983 0.290934,-0.40177 0.290934,-1.10486 0,-0.70309 -0.290934,-1.10139 -0.290934,-0.40177 -0.796606,-0.40177 -0.505671,0 -0.796605,0.40177 -0.287471,0.3983 -0.287471,1.10139 z"
         style="fill:none;stroke-width:0.26458332;stroke:#0000ff"
         id="path1022" />
      <path
         d="m 60.607259,171.96345 q 0,-0.70309 -0.290934,-1.10139 -0.287471,-0.40177 -0.793142,-0.40177 -0.505672,0 -0.796606,0.40177 -0.287471,0.3983 -0.287471,1.10139 0,0.70309 0.287471,1.10486 0.290934,0.3983 0.796606,0.3983 0.505671,0 0.793142,-0.3983 0.290934,-0.40177 0.290934,-1.10486 z m -2.168153,-1.35423 q 0.200883,-0.34635 0.505671,-0.5126 0.308252,-0.16971 0.734263,-0.16971 0.706555,0 1.14642,0.56109 0.443328,0.56109 0.443328,1.47545 0,0.91437 -0.443328,1.47546 -0.439865,0.56108 -1.14642,0.56108 -0.426011,0 -0.734263,-0.16625 -0.304788,-0.16971 -0.505671,-0.51606 v 0.58187 h -0.640748 v -5.38921 h 0.640748 z"
         style="fill:none;stroke-width:0.26458332;stroke:#0000ff"
         id="path1024" />
      <path
         d="m 63.828317,170.46722 q -0.512599,0 -0.81046,0.40177 -0.297861,0.3983 -0.297861,1.09446 0,0.69617 0.294397,1.09793 0.297862,0.39831 0.813924,0.39831 0.509135,0 0.806996,-0.40177 0.297861,-0.40177 0.297861,-1.09447 0,-0.68923 -0.297861,-1.091 -0.297861,-0.40523 -0.806996,-0.40523 z m 0,-0.54031 q 0.831241,0 1.305741,0.54031 0.4745,0.54031 0.4745,1.49623 0,0.95247 -0.4745,1.49624 -0.4745,0.5403 -1.305741,0.5403 -0.834705,0 -1.309205,-0.5403 -0.471036,-0.54377 -0.471036,-1.49624 0,-0.95592 0.471036,-1.49623 0.4745,-0.54031 1.309205,-0.54031 z"
         style="fill:none;stroke-width:0.26458332;stroke:#0000ff"
         id="path1026" />
      <path
         d="m 68.424385,171.9496 q -0.772361,0 -1.070222,0.17664 -0.297862,0.17664 -0.297862,0.60265 0,0.33942 0.221665,0.5403 0.225127,0.19742 0.609576,0.19742 0.529916,0 0.848558,-0.37405 0.322106,-0.37753 0.322106,-1.00096 v -0.142 z m 1.271106,-0.26323 v 2.21318 h -0.637285 v -0.58879 q -0.2182,0.35327 -0.54377,0.52298 -0.325569,0.16625 -0.796606,0.16625 -0.595722,0 -0.948999,-0.33249 -0.349814,-0.33596 -0.349814,-0.89705 0,-0.6546 0.436401,-0.9871 0.439865,-0.3325 1.309204,-0.3325 h 0.893584 v -0.0623 q 0,-0.43986 -0.290934,-0.67885 -0.287471,-0.24244 -0.81046,-0.24244 -0.332496,0 -0.647675,0.0797 -0.315179,0.0797 -0.606113,0.23898 v -0.58879 q 0.349814,-0.13508 0.678847,-0.20089 0.329032,-0.0693 0.640748,-0.0693 0.841631,0 1.257252,0.4364 0.41562,0.43641 0.41562,1.32306 z"
         style="fill:none;stroke-width:0.26458332;stroke:#0000ff"
         id="path1028" />
      <path
         d="m 73.259436,170.61615 q -0.107368,-0.0623 -0.235518,-0.09 -0.124686,-0.0312 -0.27708,-0.0312 -0.540307,0 -0.831241,0.35327 -0.287471,0.34982 -0.287471,1.00788 v 2.04347 h -0.640748 v -3.87912 h 0.640748 v 0.60265 q 0.200883,-0.35328 0.522989,-0.52299 0.322106,-0.17318 0.782752,-0.17318 0.06581,0 0.145467,0.0104 0.07966,0.007 0.176639,0.0242 z"
         style="fill:none;stroke-width:0.26458332;stroke:#0000ff"
         id="path1030" />
      <path
         d="m 76.362736,170.60922 v -2.09888 h 0.637285 v 5.38921 h -0.637285 v -0.58187 q -0.200883,0.34635 -0.509135,0.51606 -0.304788,0.16625 -0.734263,0.16625 -0.703091,0 -1.146419,-0.56108 -0.439865,-0.56109 -0.439865,-1.47546 0,-0.91436 0.439865,-1.47545 0.443328,-0.56109 1.146419,-0.56109 0.429475,0 0.734263,0.16971 0.308252,0.16625 0.509135,0.5126 z m -2.171617,1.35423 q 0,0.70309 0.287471,1.10486 0.290934,0.3983 0.796606,0.3983 0.505671,0 0.796606,-0.3983 0.290934,-0.40177 0.290934,-1.10486 0,-0.70309 -0.290934,-1.10139 -0.290935,-0.40177 -0.796606,-0.40177 -0.505672,0 -0.796606,0.40177 -0.287471,0.3983 -0.287471,1.10139 z"
         style="fill:none;stroke-width:0.26458332;stroke:#0000ff"
         id="path1032" />
    </g>
    <g
       aria-label="Arduino UNO"
       style="font-style:normal;font-weight:normal;font-size:7.09325504px;line-height:1.25;font-family:sans-serif;letter-spacing:0px;word-spacing:0px;fill:none;fill-opacity:1;stroke:#0000ff;stroke-width:0.26458332"
       id="text967">
      <path
         d="m 21.695222,235.41778 -0.949,2.57338 h 1.901463 z m -0.39484,-0.68924 h 0.793142 l 1.970734,5.17101 h -0.727336 l -0.471036,-1.32652 h -2.330938 l -0.471037,1.32652 h -0.737726 z"
         style="fill:none;stroke-width:0.26458332;stroke:#0000ff"
         id="path993" />
      <path
         d="m 27.035944,236.61615 q -0.107369,-0.0623 -0.235519,-0.09 -0.124686,-0.0312 -0.27708,-0.0312 -0.540306,0 -0.831241,0.35327 -0.28747,0.34982 -0.28747,1.00788 v 2.04347 h -0.640749 v -3.87912 h 0.640749 v 0.60265 q 0.200883,-0.35328 0.522989,-0.52299 0.322105,-0.17318 0.782751,-0.17318 0.06581,0 0.145467,0.0104 0.07966,0.007 0.176639,0.0242 z"
         style="fill:none;stroke-width:0.26458332;stroke:#0000ff"
         id="path995" />
      <path
         d="m 30.139242,236.60922 v -2.09888 h 0.637285 v 5.38921 h -0.637285 v -0.58187 q -0.200883,0.34635 -0.509135,0.51606 -0.304788,0.16625 -0.734262,0.16625 -0.703091,0 -1.14642,-0.56108 -0.439865,-0.56109 -0.439865,-1.47546 0,-0.91436 0.439865,-1.47545 0.443329,-0.56109 1.14642,-0.56109 0.429474,0 0.734262,0.16971 0.308252,0.16625 0.509135,0.5126 z m -2.171616,1.35423 q 0,0.70309 0.287471,1.10486 0.290934,0.3983 0.796605,0.3983 0.505672,0 0.796606,-0.3983 0.290934,-0.40177 0.290934,-1.10486 0,-0.70309 -0.290934,-1.10139 -0.290934,-0.40177 -0.796606,-0.40177 -0.505671,0 -0.796605,0.40177 -0.287471,0.3983 -0.287471,1.10139 z"
         style="fill:none;stroke-width:0.26458332;stroke:#0000ff"
         id="path997" />
      <path
         d="m 32.023389,238.36868 v -2.34825 h 0.637284 v 2.32401 q 0,0.5507 0.214738,0.82778 0.214737,0.27361 0.644211,0.27361 0.516062,0 0.813924,-0.32903 0.301324,-0.32903 0.301324,-0.89705 v -2.19932 h 0.637285 v 3.87912 H 34.63487 v -0.59572 q -0.232054,0.35328 -0.540306,0.52645 -0.304788,0.16971 -0.710018,0.16971 -0.668457,0 -1.014807,-0.41562 -0.34635,-0.41562 -0.34635,-1.21569 z m 1.603602,-2.44177 z"
         style="fill:none;stroke-width:0.26458332;stroke:#0000ff"
         id="path999" />
      <path
         d="m 36.59175,236.02043 h 0.637285 v 3.87912 H 36.59175 Z m 0,-1.51009 h 0.637285 v 0.807 H 36.59175 Z"
         style="fill:none;stroke-width:0.26458332;stroke:#0000ff"
         id="path1001" />
      <path
         d="m 41.783542,237.55822 v 2.34133 H 41.146257 V 237.579 q 0,-0.55069 -0.214737,-0.82431 -0.214737,-0.27362 -0.644212,-0.27362 -0.516062,0 -0.813923,0.32904 -0.297861,0.32903 -0.297861,0.89704 v 2.1924 h -0.640748 v -3.87912 h 0.640748 v 0.60265 q 0.228591,-0.34982 0.536843,-0.52299 0.311715,-0.17318 0.716945,-0.17318 0.668456,0 1.011343,0.41562 0.342887,0.41216 0.342887,1.21569 z"
         style="fill:none;stroke-width:0.26458332;stroke:#0000ff"
         id="path1003" />
      <path
         d="m 44.564735,236.46722 q -0.512599,0 -0.81046,0.40177 -0.297862,0.3983 -0.297862,1.09446 0,0.69617 0.294398,1.09793 0.297862,0.39831 0.813924,0.39831 0.509135,0 0.806996,-0.40177 0.297861,-0.40177 0.297861,-1.09447 0,-0.68923 -0.297861,-1.091 -0.297861,-0.40523 -0.806996,-0.40523 z m 0,-0.54031 q 0.83124,0 1.30574,0.54031 0.4745,0.54031 0.4745,1.49623 0,0.95247 -0.4745,1.49624 -0.4745,0.5403 -1.30574,0.5403 -0.834705,0 -1.309205,-0.5403 -0.471036,-0.54377 -0.471036,-1.49624 0,-0.95592 0.471036,-1.49623 0.4745,-0.54031 1.309205,-0.54031 z"
         style="fill:none;stroke-width:0.26458332;stroke:#0000ff"
         id="path1005" />
      <path
         d="m 49.604131,234.72854 h 0.703091 v 3.1414 q 0,0.83124 0.301325,1.19837 0.301324,0.36367 0.976708,0.36367 0.671919,0 0.973244,-0.36367 0.301325,-0.36713 0.301325,-1.19837 v -3.1414 h 0.703091 v 3.22799 q 0,1.01134 -0.502208,1.5274 -0.498744,0.51606 -1.475452,0.51606 -0.980172,0 -1.48238,-0.51606 -0.498744,-0.51606 -0.498744,-1.5274 z"
         style="fill:none;stroke-width:0.26458332;stroke:#0000ff"
         id="path1007" />
      <path
         d="m 54.879047,234.72854 h 0.942072 l 2.29284,4.32592 v -4.32592 h 0.678846 v 5.17101 h -0.942073 l -2.292839,-4.32591 v 4.32591 h -0.678846 z"
         style="fill:none;stroke-width:0.26458332;stroke:#0000ff"
         id="path1009" />
      <path
         d="m 62.284017,235.20304 q -0.761971,0 -1.212226,0.56802 -0.446792,0.56801 -0.446792,1.54818 0,0.97671 0.446792,1.54472 0.450255,0.56802 1.212226,0.56802 0.761971,0 1.205299,-0.56802 0.446792,-0.56801 0.446792,-1.54472 0,-0.98017 -0.446792,-1.54818 -0.443328,-0.56802 -1.205299,-0.56802 z m 0,-0.56801 q 1.08754,0 1.738679,0.7308 0.651138,0.72733 0.651138,1.95341 0,1.22262 -0.651138,1.95342 -0.651139,0.72733 -1.738679,0.72733 -1.091004,0 -1.745606,-0.72733 -0.651138,-0.72734 -0.651138,-1.95342 0,-1.22608 0.651138,-1.95341 0.654602,-0.7308 1.745606,-0.7308 z"
         style="fill:none;stroke-width:0.26458332;stroke:#0000ff"
         id="path1011" />
    </g>
    <g
       aria-label="9V Battery"
       style="font-style:normal;font-weight:normal;font-size:4.76279116px;line-height:1.25;font-family:sans-serif;letter-spacing:0px;word-spacing:0px;fill:none;fill-opacity:1;stroke:#0000ff;stroke-width:0.26458332"
       id="text971">
      <path
         d="m -43.280528,271.2 v -0.42791 q 0.176745,0.0837 0.35814,0.12791 0.181395,0.0442 0.355814,0.0442 0.465116,0 0.709302,-0.31163 0.246512,-0.31395 0.281396,-0.95116 -0.134884,0.2 -0.341861,0.30697 -0.206976,0.10698 -0.458139,0.10698 -0.520931,0 -0.825582,-0.31395 -0.302325,-0.31628 -0.302325,-0.86279 0,-0.53489 0.316279,-0.85814 0.316279,-0.32326 0.84186,-0.32326 0.602326,0 0.918605,0.46279 0.318605,0.46047 0.318605,1.33954 0,0.82093 -0.390698,1.31162 -0.388372,0.48838 -1.046512,0.48838 -0.176744,0 -0.358139,-0.0349 -0.181396,-0.0349 -0.376745,-0.10465 z m 0.934884,-1.47209 q 0.316279,0 0.5,-0.21628 0.186047,-0.21628 0.186047,-0.59302 0,-0.37442 -0.186047,-0.5907 -0.183721,-0.21861 -0.5,-0.21861 -0.316279,0 -0.502325,0.21861 -0.183721,0.21628 -0.183721,0.5907 0,0.37674 0.183721,0.59302 0.186046,0.21628 0.502325,0.21628 z"
         style="fill:none;stroke-width:0.26458332;stroke:#0000ff"
         id="path973" />
      <path
         d="M -39.408434,271.27209 -40.734016,267.8 h 0.490698 l 1.1,2.92326 1.102326,-2.92326 h 0.488372 l -1.323256,3.47209 z"
         style="fill:none;stroke-width:0.26458332;stroke:#0000ff"
         id="path975" />
      <path
         d="m -35.061922,269.61396 v 1.27209 h 0.753489 q 0.379069,0 0.560465,-0.15582 0.183721,-0.15814 0.183721,-0.48139 0,-0.32558 -0.183721,-0.47907 -0.181396,-0.15581 -0.560465,-0.15581 z m 0,-1.42791 v 1.04651 h 0.695349 q 0.344186,0 0.511628,-0.12791 0.169768,-0.13023 0.169768,-0.39535 0,-0.26279 -0.169768,-0.39302 -0.167442,-0.13023 -0.511628,-0.13023 z M -35.531689,267.8 h 1.2 q 0.537209,0 0.827907,0.22326 0.290698,0.22325 0.290698,0.63488 0,0.31861 -0.148838,0.50698 -0.148837,0.18837 -0.437209,0.23488 0.346512,0.0744 0.537209,0.31163 0.193024,0.23488 0.193024,0.58837 0,0.46512 -0.316279,0.71861 -0.31628,0.25348 -0.900001,0.25348 h -1.246511 z"
         style="fill:none;stroke-width:0.26458332;stroke:#0000ff"
         id="path977" />
      <path
         d="m -31.101456,269.96279 q -0.518605,0 -0.718605,0.11861 -0.2,0.1186 -0.2,0.40465 0,0.22791 0.148837,0.36279 0.151163,0.13256 0.409303,0.13256 0.355814,0 0.569767,-0.25117 0.216279,-0.25348 0.216279,-0.67209 v -0.0953 z m 0.853488,-0.17674 v 1.48604 h -0.427907 v -0.39534 q -0.146511,0.23721 -0.365116,0.35116 -0.218605,0.11163 -0.534884,0.11163 -0.4,0 -0.637209,-0.22326 -0.234884,-0.22558 -0.234884,-0.60232 0,-0.43954 0.293023,-0.6628 0.295349,-0.22325 0.87907,-0.22325 h 0.6 v -0.0419 q 0,-0.29535 -0.195349,-0.45582 -0.193023,-0.16279 -0.544186,-0.16279 -0.223256,0 -0.434883,0.0535 -0.211628,0.0535 -0.406977,0.16047 v -0.39535 q 0.234883,-0.0907 0.455814,-0.13489 0.22093,-0.0465 0.430232,-0.0465 0.565117,0 0.844186,0.29303 0.27907,0.29302 0.27907,0.88837 z"
         style="fill:none;stroke-width:0.26458332;stroke:#0000ff"
         id="path979" />
      <path
         d="m -28.940991,267.92791 v 0.73953 h 0.881396 V 269 h -0.881396 v 1.41396 q 0,0.3186 0.08605,0.4093 0.08837,0.0907 0.355814,0.0907 h 0.439535 v 0.35813 h -0.439535 q -0.495349,0 -0.683721,-0.18372 -0.188372,-0.18604 -0.188372,-0.67441 V 269 h -0.313954 v -0.33256 h 0.313954 v -0.73953 z"
         style="fill:none;stroke-width:0.26458332;stroke:#0000ff"
         id="path982" />
      <path
         d="m -27.071223,267.92791 v 0.73953 h 0.881395 V 269 h -0.881395 v 1.41396 q 0,0.3186 0.08605,0.4093 0.08837,0.0907 0.355814,0.0907 h 0.439535 v 0.35813 h -0.439535 q -0.495349,0 -0.683721,-0.18372 -0.188372,-0.18604 -0.188372,-0.67441 V 269 h -0.313953 v -0.33256 h 0.313953 v -0.73953 z"
         style="fill:none;stroke-width:0.26458332;stroke:#0000ff"
         id="path984" />
      <path
         d="m -23.396805,269.86279 v 0.2093 h -1.967442 q 0.02791,0.44187 0.265116,0.67442 0.239535,0.23024 0.665117,0.23024 0.246511,0 0.476744,-0.0605 0.232558,-0.0605 0.460465,-0.18139 v 0.40465 q -0.230232,0.0977 -0.472093,0.14883 -0.24186,0.0512 -0.490698,0.0512 -0.623256,0 -0.988372,-0.36279 -0.362791,-0.36279 -0.362791,-0.9814 0,-0.63953 0.344187,-1.01395 0.346511,-0.37675 0.932558,-0.37675 0.525581,0 0.830232,0.33954 0.306977,0.33721 0.306977,0.9186 z m -0.427907,-0.12558 q -0.0047,-0.35116 -0.197674,-0.56046 -0.190698,-0.20931 -0.506977,-0.20931 -0.35814,0 -0.574419,0.20233 -0.213953,0.20232 -0.246511,0.56977 z"
         style="fill:none;stroke-width:0.26458332;stroke:#0000ff"
         id="path986" />
      <path
         d="m -21.185177,269.06744 q -0.07209,-0.0419 -0.158139,-0.0605 -0.08372,-0.0209 -0.186047,-0.0209 -0.36279,0 -0.558139,0.23721 -0.193023,0.23488 -0.193023,0.67674 v 1.37209 h -0.430233 v -2.60465 h 0.430233 v 0.40465 q 0.134883,-0.2372 0.351162,-0.35116 0.216279,-0.11628 0.525582,-0.11628 0.04419,0 0.09767,0.007 0.05349,0.005 0.118605,0.0163 z"
         style="fill:none;stroke-width:0.26458332;stroke:#0000ff"
         id="path988" />
      <path
         d="m -19.647967,271.51396 q -0.181395,0.46511 -0.353488,0.60697 -0.172093,0.14186 -0.460465,0.14186 h -0.341861 v -0.35814 h 0.251163 q 0.176744,0 0.274419,-0.0837 0.09767,-0.0837 0.216279,-0.39535 l 0.07674,-0.19535 -1.053488,-2.56279 h 0.453488 l 0.813954,2.03721 0.813953,-2.03721 h 0.453489 z"
         style="fill:none;stroke-width:0.26458332;stroke:#0000ff"
         id="path990" />
    </g>
    <g
       id="g907"
       transform="translate(-2.405e-6,-7.5949999e-6)">
      <path
         sodipodi:nodetypes="ccccccccccccccccccccccccccccc"
         inkscape:connector-curvature="0"
         id="path875"
         d="m 2.9998488,630.88846 -0.002,-3.8894 -2.93383999,0.004 0.0445,-15.0001 2.99997999,-0.004 -0.0216,-14.99999 -2.99998999,0.004 -0.0217,-15 2.99998999,-0.004 -0.0216,-14.99995 -2.99998999,0.004 -0.0217,-15.00002 L 3.02192,551.999 3.00001,536.99999 111.0219,537.00299 111,552.002 l 3.00002,0.004 -0.0217,15.00002 -2.99999,-0.004 -0.0216,14.99995 2.99999,0.004 -0.0217,15 -2.99999,-0.004 -0.0216,14.99999 2.99998,0.004 0.0445,15.0001 -2.93384,-0.004 -0.002,3.8879 z"
         style="fill:#ffff00;stroke:none;stroke-width:0.26458332px;stroke-linecap:butt;stroke-linejoin:miter;stroke-opacity:1" />
      <g
         transform="translate(-2.9999952,-52.707349)"
         aria-label="Breadboard"
         style="font-style:normal;font-weight:normal;font-size:7.09325504px;line-height:1.25;font-family:sans-serif;letter-spacing:0px;word-spacing:0px;fill:none;fill-opacity:1;stroke:#0000ff;stroke-width:0.26458332"
         id="g896">
        <g
           id="text900"
           style="font-style:normal;font-weight:normal;font-size:10.58333302px;line-height:1.25;font-family:sans-serif;letter-spacing:0px;word-spacing:0px;fill:#000000;fill-opacity:1;stroke:none;stroke-width:0.07000434"
           transform="scale(-1)"
           aria-label="MORSE MACHINE">
          <path
             id="path902"
             style="fill:none;stroke:#0000ff;stroke-width:0.07000434"
             d="m -104.58126,-680.57015 h 1.55546 l 1.96887,5.25033 1.979209,-5.25033 h 1.555461 v 7.71529 h -1.018026 v -6.77478 l -1.989544,5.29167 h -1.04903 l -1.98954,-5.29167 v 6.77478 h -1.01286 z"
             inkscape:connector-curvature="0" />
          <path
             id="path904"
             style="fill:none;stroke:#0000ff;stroke-width:0.07000434"
             d="m -92.313276,-679.86218 q -1.136882,0 -1.808675,0.84749 -0.666626,0.84749 -0.666626,2.30994 0,1.45727 0.666626,2.30477 0.671793,0.84749 1.808675,0.84749 1.136881,0 1.798339,-0.84749 0.666626,-0.8475 0.666626,-2.30477 0,-1.46245 -0.666626,-2.30994 -0.661458,-0.84749 -1.798339,-0.84749 z m 0,-0.8475 q 1.62264,0 2.594156,1.09038 0.971517,1.0852 0.971517,2.91455 0,1.82418 -0.971517,2.91455 -0.971516,1.0852 -2.594156,1.0852 -1.627808,0 -2.604493,-1.0852 -0.971516,-1.08521 -0.971516,-2.91455 0,-1.82935 0.971516,-2.91455 0.976685,-1.09038 2.604493,-1.09038 z"
             inkscape:connector-curvature="0" />
          <path
             id="path906"
             style="fill:none;stroke:#0000ff;stroke-width:0.07000434"
             d="m -83.455937,-676.47221 q 0.335897,0.11369 0.651123,0.48576 0.320394,0.37207 0.640788,1.02319 l 1.059367,2.1084 h -1.121379 l -0.987019,-1.97921 q -0.382406,-0.77514 -0.744141,-1.02836 -0.356567,-0.25321 -0.976684,-0.25321 h -1.136882 v 3.26078 h -1.043864 v -7.71529 h 2.356445 q 1.322917,0 1.97404,0.55294 0.651123,0.55294 0.651123,1.66915 0,0.72863 -0.341064,1.20923 -0.335897,0.48059 -0.981853,0.66662 z m -2.614827,-3.24011 v 2.73885 h 1.312581 q 0.754476,0 1.136882,-0.34623 0.387573,-0.3514 0.387573,-1.02836 0,-0.67696 -0.387573,-1.01803 -0.382406,-0.34623 -1.136882,-0.34623 z"
             inkscape:connector-curvature="0" />
          <path
             id="path908"
             style="fill:none;stroke:#0000ff;stroke-width:0.07000434"
             d="m -75.130865,-680.31693 v 1.01802 q -0.594279,-0.28422 -1.121378,-0.42375 -0.5271,-0.13952 -1.018026,-0.13952 -0.852661,0 -1.317749,0.33073 -0.45992,0.33073 -0.45992,0.94051 0,0.51159 0.304891,0.77514 0.310058,0.25839 1.167887,0.41858 l 0.630453,0.12919 q 1.167887,0.22221 1.720825,0.78549 0.558105,0.5581 0.558105,1.49861 0,1.12138 -0.754476,1.70016 -0.749308,0.57877 -2.201416,0.57877 -0.54777,0 -1.167887,-0.12402 -0.614949,-0.12402 -1.276408,-0.3669 v -1.07487 q 0.63562,0.35656 1.245402,0.53743 0.609782,0.18087 1.198893,0.18087 0.894003,0 1.379761,-0.3514 0.485759,-0.3514 0.485759,-1.00252 0,-0.56844 -0.3514,-0.88884 -0.346232,-0.32039 -1.142049,-0.48059 l -0.63562,-0.12402 q -1.167888,-0.23255 -1.68982,-0.72864 -0.521932,-0.49609 -0.521932,-1.37976 0,-1.02319 0.718303,-1.6123 0.72347,-0.58912 1.989542,-0.58912 0.542603,0 1.105876,0.0982 0.563273,0.0982 1.152384,0.29456 z"
             inkscape:connector-curvature="0" />
          <path
             id="path910"
             style="fill:none;stroke:#0000ff;stroke-width:0.07000434"
             d="m -73.037968,-680.57015 h 4.878255 v 0.8785 h -3.834391 v 2.2841 h 3.674194 v 0.8785 h -3.674194 v 2.79569 h 3.927409 v 0.8785 h -4.971273 z"
             inkscape:connector-curvature="0" />
          <path
             id="path913"
             style="fill:none;stroke:#0000ff;stroke-width:0.07000434"
             d="m -62.971397,-680.57015 h 1.55546 l 1.968872,5.25033 1.979207,-5.25033 h 1.555461 v 7.71529 h -1.018026 v -6.77478 l -1.989542,5.29167 h -1.049032 l -1.989542,-5.29167 v 6.77478 h -1.012858 z"
             inkscape:connector-curvature="0" />
          <path
             id="path915"
             style="fill:none;stroke:#0000ff;stroke-width:0.07000434"
             d="m -51.256353,-679.54179 -1.415934,3.83956 h 2.837036 z m -0.589111,-1.02836 h 1.18339 l 2.940389,7.71529 h -1.085205 l -0.702799,-1.97921 h -3.477824 l -0.7028,1.97921 h -1.100708 z"
             inkscape:connector-curvature="0" />
          <path
             id="path918"
             style="fill:none;stroke:#0000ff;stroke-width:0.07000434"
             d="m -41.008918,-679.97587 v 1.10071 q -0.527099,-0.49093 -1.126546,-0.73381 -0.594279,-0.24288 -1.266072,-0.24288 -1.322917,0 -2.025717,0.81132 -0.702799,0.80616 -0.702799,2.33578 0,1.52445 0.702799,2.33577 0.7028,0.80615 2.025717,0.80615 0.671793,0 1.266072,-0.24287 0.599447,-0.24288 1.126546,-0.73381 v 1.09037 q -0.54777,0.37207 -1.162719,0.55811 -0.609782,0.18603 -1.291911,0.18603 -1.751831,0 -2.759522,-1.0697 -1.00769,-1.07487 -1.00769,-2.93005 0,-1.86035 1.00769,-2.93006 1.007691,-1.07487 2.759522,-1.07487 0.692464,0 1.302246,0.18604 0.614949,0.18087 1.152384,0.54777 z"
             inkscape:connector-curvature="0" />
          <path
             id="path920"
             style="fill:none;stroke:#0000ff;stroke-width:0.07000434"
             d="m -39.386276,-680.57015 h 1.043864 v 3.1626 h 3.79305 v -3.1626 h 1.043864 v 7.71529 h -1.043864 v -3.67419 h -3.79305 v 3.67419 h -1.043864 z"
             inkscape:connector-curvature="0" />
          <path
             id="path922"
             style="fill:none;stroke:#0000ff;stroke-width:0.07000434"
             d="m -31.428108,-680.57015 h 1.043864 v 7.71529 h -1.043864 z"
             inkscape:connector-curvature="0" />
          <path
             id="path924"
             style="fill:none;stroke:#0000ff;stroke-width:0.07000434"
             d="m -28.306847,-680.57015 h 1.405599 l 3.42098,6.45439 v -6.45439 h 1.012858 v 7.71529 h -1.405599 l -3.42098,-6.45438 v 6.45438 h -1.012858 z"
             inkscape:connector-curvature="0" />
          <path
             id="path926"
             style="fill:none;stroke:#0000ff;stroke-width:0.07000434"
             d="m -20.390022,-680.57015 h 4.878255 v 0.8785 h -3.834391 v 2.2841 h 3.674194 v 0.8785 h -3.674194 v 2.79569 h 3.927408 v 0.8785 h -4.971272 z"
             inkscape:connector-curvature="0" />
        </g>
      </g>
    </g>
  </g>
</svg>
